<?xml version="1.0" encoding="UTF-8" standalone="no"?>
<svg
   version="1.0"
   width="100%"
   height="100%"
   viewBox="0 0 340.000000 250.000000"
   preserveAspectRatio="xMidYMid meet"
   color-interpolation-filters="sRGB"
   style="margin: auto;"
   id="svg55"
   sodipodi:docname="SyterKit LOGO.svg"
   inkscape:version="1.2.2 (732a01da63, 2022-12-09)"
   xmlns:inkscape="http://www.inkscape.org/namespaces/inkscape"
   xmlns:sodipodi="http://sodipodi.sourceforge.net/DTD/sodipodi-0.dtd"
   xmlns="http://www.w3.org/2000/svg"
   xmlns:svg="http://www.w3.org/2000/svg">
  <defs
     id="defs59" />
  <sodipodi:namedview
     id="namedview57"
     pagecolor="#ffffff"
     bordercolor="#000000"
     borderopacity="0.25"
     inkscape:showpageshadow="2"
     inkscape:pageopacity="0.0"
     inkscape:pagecheckerboard="0"
     inkscape:deskcolor="#d1d1d1"
     showgrid="false"
     inkscape:zoom="3.6970588"
     inkscape:cx="136.18934"
     inkscape:cy="108.4646"
     inkscape:window-width="2560"
     inkscape:window-height="1377"
     inkscape:window-x="-8"
     inkscape:window-y="-8"
     inkscape:window-maximized="1"
     inkscape:current-layer="svg55" />
  <rect
     data-v-0dd9719b=""
     x="0"
     y="0"
     width="100%"
     height="100%"
     fill="#ffffff"
     fill-opacity="1"
     class="background"
     id="rect2" />
  <rect
     data-v-0dd9719b=""
     x="0"
     y="0"
     width="100%"
     height="100%"
     fill="url(#watermark)"
     fill-opacity="1"
     class="watermarklayer"
     id="rect4" />
  <g
     data-v-0dd9719b=""
     fill="#333"
     class="icon-text-wrapper icon-svg-group iconsvg"
     transform="translate(35.415008544921875,95)"
     id="g53">
    <g
       fill="#0059cc"
       class="iconsvg-imagesvg icon_container"
       transform="translate(0,0)"
       id="g39">
      <rect
         fill="#333"
         fill-opacity="0"
         stroke-width="2"
         x="0"
         y="0"
         width="60"
         height="60"
         class="image-rect"
         id="rect6" />
      <svg
         viewBox="0 0 60 60"
         x="0"
         y="0"
         width="60"
         height="60"
         class="image-svg-svg bn"
         style="overflow: visible;"
         version="1.1"
         id="svg37">
        <g
           hollow-target=""
           id="g35">
          <g
             id="g21">
            <svg
               viewBox="0 0 144 144"
               style="overflow: visible;"
               width="60"
               height="60"
               x="0"
               y="0"
               filtersec="colorsb1791840437"
               filter="url(#82i0wvb6vTcwQfGA7dxeO)"
               version="1.1"
               id="svg19">
              <g
                 transform="scale(1, 1) skewX(0)"
                 id="g12">
                <path
                   d="M72 0c39.765 0 72 32.235 72 72s-32.235 72-72 72S0 111.765 0 72 32.235 0 72 0zm0 7C36.101 7 7 36.101 7 72s29.101 65 65 65 65-29.101 65-65S107.899 7 72 7z"
                   fill="#000"
                   fill-rule="nonzero"
                   id="path10" />
              </g>
              <defs
                 id="defs17">
                <filter
                   id="82i0wvb6vTcwQfGA7dxeO"
                   x="0"
                   y="0"
                   width="1"
                   height="1">
                  <feColorMatrix
                     type="matrix"
                     values="0 0 0 0 0  0 0 0 0 0.34765625  0 0 0 0 0.796875  0 0 0 1 0"
                     id="feColorMatrix14" />
                </filter>
              </defs>
            </svg>
          </g>
          <g
             id="g33">
            <svg
               viewBox="0.4385022521018982 -0.000009216904800268821 101.5615005493164 99.98497772216797"
               width="40"
               height="40"
               x="10"
               y="10"
               class="image-svg-icon"
               version="1.1"
               id="svg31">
              <path
                 d="M69.3 59.41l-9.89 9.89L51 77.73 30.46 98.26A6 6 0 0 1 22 89.83L42.56 69.3 51 60.88l9.9-9.9zM102 24.28a6 6 0 0 1-1.75 4.21L77.72 51l-8.42-8.44 22.5-22.5a6 6 0 0 1 10.2 4.22z"
                 fill="#0059cc"
                 id="path23" />
              <path
                 d="M83.64 6a5.94 5.94 0 0 1-1.74 4.21L41.08 51l-8.42-8.42 9.9-9.89L51 24.24 73.48 1.75A6 6 0 0 1 83.64 6zM32.66 59.41L12.13 79.93a6 6 0 0 1-8.42-8.42L24.24 51z"
                 fill="#00dac7"
                 id="path25" />
              <path
                 d="M51 24.24l-8.42 8.43-22.5-22.5A6 6 0 0 1 24.28 0a5.89 5.89 0 0 1 4.2 1.75zM98.25 79.93a5.94 5.94 0 0 1-8.42 0L51 41.09l8.42-8.42 9.9 9.89 8.4 8.44 20.53 20.51a6 6 0 0 1 0 8.42z"
                 fill="#00baec"
                 id="path27" />
              <path
                 d="M51 60.88l-8.44 8.42L1.74 28.49a6 6 0 0 1 8.43-8.43l22.49 22.5L41.08 51zM79.93 98.26a6 6 0 0 1-8.42 0L51 77.73l8.42-8.43 20.51 20.53a6 6 0 0 1 0 8.43z"
                 fill="#00abd8"
                 id="path29" />
            </svg>
          </g>
        </g>
      </svg>
    </g>
    <g
       transform="translate(67,5.974998474121094)"
       id="g51">
      <g
         data-gra="path-name"
         fill-rule=""
         class="tp-name iconsvg-namesvg"
         id="g47">
        <g
           transform="scale(1)"
           id="g45">
          <g
             id="g43">
            <path
               d="M15.88 1.86Q9.28 1.86 5.93-1.5 2.58-4.85 2.58-10.52L2.58-10.52 9.9-10.52Q9.9-8.15 11.29-6.78 12.68-5.41 15.73-5.41L15.73-5.41Q18.77-5.41 20.57-6.37 22.38-7.32 22.27-10L22.27-10Q22.22-11.45 20.65-12.37 19.08-13.3 15.67-14.64L15.67-14.64Q12.01-15.98 9.56-17.3 7.12-18.61 5.36-20.86 3.61-23.1 3.61-26.4L3.61-26.4Q3.61-31.86 7.12-34.96 10.62-38.05 16.55-38.05L16.55-38.05Q20.52-38.05 23.46-36.53 26.4-35.01 27.95-32.43 29.49-29.85 29.49-26.81L29.49-26.81 21.97-26.81Q21.97-28.67 20.5-29.7 19.03-30.73 16.55-30.73L16.55-30.73Q14.23-30.73 12.56-29.73 10.88-28.72 11.03-26.19L11.03-26.19Q11.14-24.85 12.71-23.92 14.28-23 17.69-21.6L17.69-21.6Q21.45-20.06 23.85-18.77 26.24-17.48 28.02-15.26 29.8-13.04 29.8-9.85L29.8-9.85Q29.8-4.95 26.5-1.55 23.2 1.86 15.88 1.86L15.88 1.86ZM47.59-12.68L51.46-27.95 59.14-27.95 50.12 3.71Q48.67 8.97 43.05 8.97L43.05 8.97 35.89 8.97 35.89 2.06Q39.91 2.06 41.3 1.93 42.69 1.8 43.47 1.06 44.24 0.31 44.81-1.65L44.81-1.65 33.93-27.95 41.71-27.95 47.59-12.68ZM77.24-5.1L81.78-5.1 81.78 1.86 73.63 1.86Q69.92 1.86 68.4-0.15 66.87-2.17 66.87-6.5L66.87-6.5 66.87-20.99 63.27-20.99 63.27-27.95 66.87-27.95 66.87-34.08 74.35-34.08 74.35-27.95 81.52-27.95 81.52-20.99 74.35-20.99 74.35-8.66Q74.35-6.75 75.02-5.93 75.69-5.1 77.24-5.1L77.24-5.1ZM111.48-10.52L94.36-10.52Q94.72-7.58 96.06-6.19 97.4-4.8 99.46-4.8L99.46-4.8Q103.48-4.8 104-7.99L104-7.99 111.48-7.99Q109.57 2.22 99.46 2.22L99.46 2.22Q93.64 2.22 90.28-1.78 86.93-5.77 86.93-12.94L86.93-12.94Q86.93-17.63 88.48-21.06 90.03-24.49 92.84-26.3 95.65-28.1 99.46-28.1L99.46-28.1Q105.6-28.1 108.56-23.95 111.53-19.8 111.53-12.79L111.53-12.79Q111.53-11.29 111.48-10.52L111.48-10.52ZM94.61-16.71L103.95-16.71Q103.48-18.87 102.43-20.01 101.37-21.14 99.46-21.14L99.46-21.14Q95.65-21.14 94.61-16.71L94.61-16.71ZM125.19 1.86L117.71 1.86 117.71-27.95 124.62-27.95 124.62-24.54Q125.71-26.45 128.28-27.17 130.86-27.89 134.63-27.95L134.63-27.95 134.63-20.88Q129.88-20.73 127.54-19.49 125.19-18.25 125.19-14.85L125.19-14.85 125.19 1.86ZM156.59-19.08L166.39 1.86 157.98 1.86 149.99-15.21 147.26-15.21 147.26 1.86 139.78 1.86 139.78-37.54 147.26-37.54 147.26-22.17 150.09-22.17 157.21-37.54 165.31-37.54 156.59-19.08ZM175.77-30.47Q174.02-30.47 172.78-31.74 171.54-33 171.54-34.75L171.54-34.75Q171.54-36.56 172.78-37.82 174.02-39.08 175.77-39.08L175.77-39.08Q177.53-39.08 178.79-37.82 180.05-36.56 180.05-34.75L180.05-34.75Q180.05-33 178.81-31.74 177.58-30.47 175.77-30.47L175.77-30.47ZM179.54-27.95L179.54 1.86 172.06 1.86 172.06-27.95 179.54-27.95ZM200.21-5.1L204.75-5.1 204.75 1.86 196.6 1.86Q192.89 1.86 191.37-0.15 189.85-2.17 189.85-6.5L189.85-6.5 189.85-20.99 186.24-20.99 186.24-27.95 189.85-27.95 189.85-34.08 197.32-34.08 197.32-27.95 204.49-27.95 204.49-20.99 197.32-20.99 197.32-8.66Q197.32-6.75 197.99-5.93 198.67-5.1 200.21-5.1L200.21-5.1Z"
               transform="translate(-2.5799999237060547, 39.08000183105469)"
               id="path41" />
          </g>
        </g>
      </g>
      <defs
         v-gra="od"
         id="defs49" />
    </g>
  </g>
</svg>
